<?xml version="1.0" encoding="UTF-8" standalone="no"?><!DOCTYPE svg PUBLIC "-//W3C//DTD SVG 1.1//EN" "http://www.w3.org/Graphics/SVG/1.1/DTD/svg11.dtd"><svg width="100%" height="100%" viewBox="0 0 479 132" version="1.1" xmlns="http://www.w3.org/2000/svg" xmlns:xlink="http://www.w3.org/1999/xlink" xml:space="preserve" xmlns:serif="http://www.serif.com/" style="fill-rule:evenodd;clip-rule:evenodd;stroke-linejoin:round;stroke-miterlimit:2;"><rect id="Long-Logo-Orange-Lug-2000x550px" serif:id="Long Logo Orange Lug 2000x550px" x="0.046" y="0.042" width="478.405" height="131.561" style="fill:none;"/><g id="YJP-Logo-1" serif:id="YJP Logo 1"><g id="_-YOUR-" serif:id="&apos;YOUR&apos;"><path d="M125.049,85.752c-0,0.586 -0.85,1.059 -2.55,1.42c-1.7,0.361 -3.393,0.541 -5.079,0.541c-1.686,-0 -2.779,-0.147 -3.281,-0.44c-0.502,-0.293 -0.752,-0.8 -0.752,-1.521l-0,-11.768c-5.518,-18.259 -8.277,-28.178 -8.277,-29.756c0,-0.947 0.934,-1.939 2.801,-2.976c1.867,-1.037 3.831,-1.556 5.894,-1.556c2.647,0 4.054,1.263 4.221,3.788l1.129,18.192l0.46,-0l0.794,-17.719c0.056,-1.262 1.045,-2.288 2.968,-3.077c1.923,-0.789 3.748,-1.184 5.476,-1.184c1.727,0 2.926,0.406 3.594,1.218c0.669,0.811 1.004,1.668 1.004,2.57c-0,0.856 -2.801,11.023 -8.402,30.5l-0,11.768Z" style="fill-rule:nonzero;"/><path d="M152.863,87.541c-2.313,0 -4.299,-0.303 -5.957,-0.91c-1.658,-0.607 -3.183,-1.693 -4.577,-3.259c-2.814,-3.093 -4.221,-9.025 -4.221,-17.794c-0,-3.68 0.383,-6.891 1.149,-9.631c0.766,-2.741 1.832,-4.914 3.198,-6.519c2.675,-3.132 6.144,-4.698 10.408,-4.698c2.201,0 4.117,0.274 5.747,0.822c1.631,0.548 3.17,1.547 4.619,2.995c2.926,2.976 4.389,8.652 4.389,17.031c0,7.517 -1.323,13.056 -3.971,16.619c-2.647,3.563 -6.242,5.344 -10.784,5.344Zm-1.379,-10.071c0.334,0.567 0.794,0.851 1.379,0.851c0.585,0 1.045,-0.284 1.379,-0.851c0.335,-0.568 0.613,-1.782 0.836,-3.641c0.223,-1.86 0.335,-4.454 0.335,-7.781c-0,-3.328 -0.112,-5.893 -0.335,-7.694c-0.223,-1.801 -0.501,-2.975 -0.836,-3.523c-0.334,-0.548 -0.794,-0.822 -1.379,-0.822c-0.585,-0 -1.045,0.274 -1.379,0.822c-0.335,0.548 -0.614,1.722 -0.836,3.523c-0.223,1.801 -0.335,4.366 -0.335,7.694c0,3.327 0.112,5.921 0.335,7.781c0.222,1.859 0.501,3.073 0.836,3.641Z" style="fill-rule:nonzero;"/><path d="M199.166,70.526c0,5.638 -1.149,9.856 -3.448,12.655c-2.299,2.8 -5.629,4.199 -9.991,4.199c-4.361,0 -7.712,-1.399 -10.052,-4.199c-2.341,-2.799 -3.512,-7.017 -3.512,-12.655l0,-21.552c0,-0.979 0.788,-1.86 2.362,-2.643c1.575,-0.783 3.407,-1.175 5.497,-1.175c1.672,0 2.759,0.451 3.26,1.351c0.362,0.705 0.544,1.312 0.544,1.821l-0,17.5c-0,4.424 0.118,7.35 0.355,8.779c0.237,1.429 0.745,2.144 1.526,2.144c0.78,-0 1.274,-0.695 1.483,-2.085c0.209,-1.39 0.314,-4.355 0.314,-8.897l-0,-16.795c-0,-0.979 0.787,-1.86 2.362,-2.643c1.574,-0.783 3.392,-1.175 5.455,-1.175c1.755,0 2.87,0.451 3.344,1.351c0.334,0.705 0.501,1.312 0.501,1.821l0,22.198Z" style="fill-rule:nonzero;"/><path d="M215.527,85.871c0,0.518 -0.85,0.936 -2.55,1.255c-1.7,0.319 -3.406,0.478 -5.12,0.478c-1.714,0 -2.815,-0.139 -3.302,-0.418c-0.488,-0.279 -0.732,-0.718 -0.732,-1.315l0,-38.441c0,-1.037 0.913,-1.774 2.738,-2.212c1.825,-0.439 4.131,-0.658 6.918,-0.658c2.787,0 4.591,0.01 5.413,0.03c0.822,0.02 1.79,0.09 2.905,0.209c1.115,0.12 1.999,0.319 2.654,0.598c0.655,0.279 1.38,0.638 2.174,1.076c0.794,0.439 1.414,1.007 1.86,1.704c0.446,0.697 0.878,1.524 1.296,2.481c0.752,1.714 1.128,4.155 1.128,7.324c0,3.168 -0.369,5.838 -1.107,8.01c-0.739,2.173 -1.721,3.817 -2.947,4.933c3.205,7.214 4.807,11.797 4.807,13.75c-0,1.953 -2.745,2.929 -8.235,2.929c-1.588,0 -2.689,-0.099 -3.302,-0.299c-0.613,-0.199 -1.003,-0.637 -1.17,-1.315l-2.717,-12.315l-0.711,-0.06l0,12.256Zm0,-21.463l1.087,0c1.616,0 2.424,-1.793 2.424,-5.38c0,-1.834 -0.216,-3.129 -0.648,-3.886c-0.432,-0.757 -0.926,-1.136 -1.484,-1.136l-1.379,-0l0,10.402Z" style="fill-rule:nonzero;"/></g><g id="_-PLUG-" serif:id="&apos;PLUG&apos;"><path d="M360.104,85.92c-0,0.577 -0.85,1.043 -2.55,1.397c-1.7,0.355 -3.4,0.533 -5.1,0.533c-1.7,-0 -2.786,-0.155 -3.26,-0.466c-0.474,-0.311 -0.711,-0.799 -0.711,-1.464l0,-42.786c0,-2.13 4.013,-3.194 12.039,-3.194c4.848,-0 8.053,0.532 9.614,1.597c1.895,1.242 3.176,2.927 3.845,5.057c0.892,2.75 1.338,6.277 1.338,10.58c-0,5.9 -0.641,10.181 -1.923,12.843c-0.92,1.951 -1.839,3.216 -2.759,3.792c-0.919,0.577 -1.679,0.987 -2.278,1.231c-0.599,0.244 -1.344,0.433 -2.236,0.566c-1.226,0.178 -2.898,0.266 -5.016,0.266l-1.003,-0.066l-0,10.114Zm0.041,-21.16l1.004,-0c0.529,-0 0.947,-0.122 1.254,-0.366c0.306,-0.244 0.578,-0.91 0.815,-1.997c0.237,-1.086 0.355,-2.617 0.355,-4.591c0,-1.974 -0.132,-3.482 -0.397,-4.525c-0.265,-1.042 -0.529,-1.663 -0.794,-1.863c-0.265,-0.2 -0.578,-0.299 -0.941,-0.299l-1.296,-0l0,13.641Z" style="fill-rule:nonzero;"/><path d="M383.231,87.235c-1.394,-0 -2.327,-0.109 -2.801,-0.328c-0.474,-0.218 -0.711,-0.586 -0.711,-1.102l0,-37.057c0,-0.874 0.809,-1.738 2.425,-2.592c1.616,-0.854 3.427,-1.281 5.434,-1.281c1.783,0 2.954,0.537 3.511,1.609c0.195,0.397 0.293,0.794 0.293,1.192l-0,26.392c3.399,-0.318 5.963,-0.476 7.691,-0.476c0.585,-0 0.878,1.32 0.878,3.961c-0,2.642 -0.126,4.916 -0.377,6.822c-0.25,1.906 -0.585,2.86 -1.003,2.86l-15.34,-0Z" style="fill-rule:nonzero;"/><path d="M431.431,70.546c0,5.72 -1.149,9.999 -3.448,12.839c-2.299,2.84 -5.629,4.26 -9.99,4.26c-4.361,0 -7.712,-1.42 -10.053,-4.26c-2.341,-2.84 -3.511,-7.119 -3.511,-12.839l-0,-21.864c-0,-0.993 0.787,-1.887 2.361,-2.681c1.575,-0.795 3.407,-1.192 5.497,-1.192c1.672,0 2.759,0.457 3.26,1.37c0.363,0.715 0.544,1.331 0.544,1.847l-0,17.754c-0,4.488 0.118,7.457 0.355,8.907c0.237,1.45 0.745,2.175 1.526,2.175c0.78,-0 1.275,-0.705 1.484,-2.115c0.209,-1.41 0.313,-4.419 0.313,-9.026l0,-17.039c0,-0.993 0.787,-1.887 2.362,-2.681c1.574,-0.795 3.393,-1.192 5.455,-1.192c1.755,0 2.87,0.457 3.344,1.37c0.334,0.715 0.501,1.331 0.501,1.847l0,22.52Z" style="fill-rule:nonzero;"/><path d="M445.529,87.499c-0.947,0 -1.825,-0.136 -2.633,-0.407c-0.808,-0.272 -1.651,-0.845 -2.529,-1.719c-0.878,-0.874 -1.623,-2.029 -2.236,-3.466c-1.393,-3.262 -2.09,-8.174 -2.09,-14.737c-0,-3.611 0.348,-6.796 1.045,-9.553c0.697,-2.757 1.574,-4.902 2.633,-6.436c1.059,-1.534 2.327,-2.787 3.804,-3.758c1.477,-0.97 2.856,-1.601 4.138,-1.893c1.282,-0.291 2.648,-0.437 4.097,-0.437c3.344,0 5.698,0.399 7.064,1.195c1.365,0.796 2.048,2.32 2.048,4.572c0,1.787 -0.237,3.718 -0.711,5.796c-0.473,2.078 -1.17,3.116 -2.09,3.116c-0.222,0 -1.17,-0.301 -2.842,-0.902c-1.672,-0.602 -2.926,-0.903 -3.762,-0.903c-2.396,-0 -3.595,2.815 -3.595,8.446c0,2.835 0.279,4.941 0.836,6.32c0.558,1.379 1.254,2.146 2.09,2.301l0,-5.243c0,-0.97 0.711,-1.864 2.132,-2.679c1.421,-0.816 2.787,-1.223 4.096,-1.223c1.31,-0 2.265,0.116 2.864,0.349c0.599,0.233 1.01,0.563 1.233,0.99c0.39,0.699 0.585,1.321 0.585,1.864l0,16.136c0,0.504 -0.731,0.912 -2.194,1.223c-1.463,0.311 -2.982,0.466 -4.557,0.466c-1.574,-0 -2.57,-0.107 -2.988,-0.321c-0.418,-0.213 -0.655,-0.805 -0.711,-1.776l-0.293,-3.437l-0.334,0c-0.195,1.67 -0.69,3.107 -1.484,4.311c-0.794,1.203 -1.999,1.805 -3.616,1.805Z" style="fill-rule:nonzero;"/></g><g><path d="M259.032,84.623c-0.545,1.263 -1.343,2.149 -2.391,2.658c-1.049,0.509 -2.238,0.763 -3.567,0.763c-1.329,0 -2.301,-0.028 -2.916,-0.085c-0.615,-0.056 -1.266,-0.207 -1.951,-0.452c-0.685,-0.245 -1.224,-0.575 -1.616,-0.99c-0.895,-1.017 -1.342,-2.601 -1.342,-4.749c-0,-3.092 0.587,-4.637 1.762,-4.637c0.364,-0 0.643,-0.076 0.839,-0.226c0.532,-0.34 0.797,-1.508 0.797,-3.506l0,-29.461c0,-0.829 0.805,-1.649 2.413,-2.46c1.608,-0.81 3.322,-1.215 5.14,-1.215c2.769,-0 4.154,0.885 4.154,2.657l-0,31.27c-0,2.601 -0.084,4.675 -0.252,6.22c-0.168,1.546 -0.524,2.95 -1.07,4.213Z" style="fill-rule:nonzero;"/><path d="M305.479,87.816l-3.042,0c-1.329,0 -2.231,-0.142 -2.706,-0.428c-0.476,-0.285 -0.714,-0.734 -0.714,-1.345l0,-38.589c0,-0.938 0.861,-1.682 2.581,-2.232c1.72,-0.55 3.559,-0.826 5.517,-0.826c1.958,0 3.357,0.367 4.196,1.101c0.839,0.734 1.329,1.509 1.469,2.324l2.853,16.145l0.378,-0l2.685,-15.411c0.196,-1.101 1.112,-2.069 2.748,-2.905c1.637,-0.836 3.434,-1.254 5.392,-1.254c1.958,0 3.406,0.225 4.343,0.673c0.937,0.449 1.405,1.019 1.405,1.712l0,39.262c0,0.53 -0.797,0.958 -2.391,1.284c-1.595,0.326 -3.539,0.489 -5.833,0.489c-2.293,0 -3.44,-0.591 -3.44,-1.773c-0,-3.221 0.238,-8.949 0.713,-17.185l-0.378,0l-2.181,15.962c-0.084,0.611 -0.427,1.06 -1.028,1.345c-0.602,0.286 -1.504,0.428 -2.707,0.428c-1.203,0 -1.937,-0.122 -2.203,-0.367c-0.265,-0.244 -0.44,-0.713 -0.524,-1.406l-2.266,-15.962l-0.377,0c0.503,8.399 0.755,14.127 0.755,17.185c-0,1.06 -1.748,1.651 -5.245,1.773Z" style="fill-rule:nonzero;"/><path d="M264.722,83.529c-0.295,-4.226 0.715,-11.306 2.912,-19.072c2.125,-7.513 4.859,-13.894 7.265,-17.414c0.391,-0.573 0.774,-1.07 1.144,-1.484c0.553,-0.22 1.349,-0.417 2.387,-0.591c0.337,-0.056 0.679,-0.108 1.023,-0.155c1.415,-0.193 2.892,-0.308 4.43,-0.343c0.348,-0.008 0.699,-0.013 1.054,-0.013c1.288,0 2.238,0.188 2.852,0.564c0.292,0.467 0.583,1.011 0.872,1.626c1.815,3.87 3.51,10.539 4.446,18.211c0.941,7.709 0.895,14.622 0.052,18.813c-0.176,0.878 -0.387,1.636 -0.632,2.257c-0.686,0.641 -1.787,1.02 -3.302,1.138c-0.342,0.027 -0.704,0.04 -1.087,0.04c-4.712,-0 -7.056,-0.841 -7.035,-2.523l0.018,-3.904l-3.833,-0l-0.456,3.363c-0.141,1.162 -0.608,1.963 -1.4,2.403c-0.793,0.441 -2.173,0.661 -4.143,0.661c-1.124,-0 -2.136,-0.088 -3.034,-0.264c-0.676,-0.133 -1.287,-0.315 -1.835,-0.547c-0.672,-0.285 -1.159,-0.611 -1.459,-0.979c-0.113,-0.518 -0.193,-1.116 -0.239,-1.787Zm16.43,-14.263l0.224,-10.813l-0.879,0l-1.502,10.813l2.157,-0Z"/></g></g><path d="M51.094,28.29c9.604,-0.419 19.351,2.996 26.737,10.263c14.115,13.889 14.299,36.625 0.41,50.741c-13.889,14.116 -36.625,14.3 -50.741,0.41c-7.749,-7.625 -11.299,-17.916 -10.628,-27.984l0.015,0.016l34.231,-33.421l-0.024,-0.025Zm-12.285,22.204c-7.526,7.648 -7.426,19.967 0.222,27.492c7.648,7.525 19.966,7.425 27.492,-0.223c7.525,-7.647 7.425,-19.966 -0.223,-27.491c-7.648,-7.525 -19.966,-7.426 -27.491,0.222Zm2.138,2.104c6.364,-6.467 16.781,-6.552 23.249,-0.188c6.468,6.364 6.552,16.782 0.188,23.249c-6.364,6.468 -16.781,6.552 -23.249,0.188c-6.468,-6.363 -6.552,-16.781 -0.188,-23.249Z" style="fill:#e47200;"/></svg>