<?xml version="1.0" encoding="UTF-8" standalone="no"?><!DOCTYPE svg PUBLIC "-//W3C//DTD SVG 1.1//EN" "http://www.w3.org/Graphics/SVG/1.1/DTD/svg11.dtd"><svg width="100%" height="100%" viewBox="0 0 288 288" version="1.1" xmlns="http://www.w3.org/2000/svg" xmlns:xlink="http://www.w3.org/1999/xlink" xml:space="preserve" xmlns:serif="http://www.serif.com/" style="fill-rule:evenodd;clip-rule:evenodd;stroke-linejoin:round;stroke-miterlimit:2;"><rect id="Orange-lug.T.21200x1200" serif:id="Orange lug.T.21200x1200" x="0.179" y="0.202" width="287.043" height="287.043" style="fill:none;"/><path d="M137.262,0.702c38.281,-1.668 77.129,11.941 106.569,40.908c56.263,55.36 56.996,145.982 1.636,202.245c-55.359,56.262 -145.982,56.995 -202.244,1.635c-30.887,-30.391 -45.039,-71.411 -42.361,-111.539l0.06,0.061l136.437,-133.211l-0.097,-0.099Zm-48.966,88.503c-29.994,30.483 -29.597,79.583 0.886,109.577c30.483,29.994 79.583,29.597 109.577,-0.886c29.994,-30.483 29.597,-79.583 -0.886,-109.577c-30.484,-29.994 -79.583,-29.597 -109.577,0.886Zm8.523,8.387c25.365,-25.78 66.888,-26.115 92.667,-0.75c25.779,25.365 26.115,66.888 0.75,92.667c-25.366,25.779 -66.889,26.115 -92.668,0.75c-25.779,-25.366 -26.114,-66.888 -0.749,-92.667Zm62.099,29.657l21.127,0c4.847,0 5.103,-3.201 5.103,-7.143c-0,-3.942 -0.256,-7.143 -5.103,-7.143l-21.127,-0c-4.847,-0 -5.304,3.201 -5.304,7.143c-0,3.942 0.457,7.143 5.304,7.143Zm-51.845,0.73l21.127,-0c4.847,-0 5.103,-3.201 5.103,-7.144c-0,-3.942 -0.256,-7.143 -5.103,-7.143l-21.127,0c-4.847,0 -5.305,3.201 -5.305,7.143c0,3.943 0.458,7.144 5.305,7.144Z" style="fill:#e47200;"/></svg>