<?xml version="1.0" encoding="UTF-8" standalone="no"?><!DOCTYPE svg PUBLIC "-//W3C//DTD SVG 1.1//EN" "http://www.w3.org/Graphics/SVG/1.1/DTD/svg11.dtd"><svg width="100%" height="100%" viewBox="0 0 288 288" version="1.1" xmlns="http://www.w3.org/2000/svg" xmlns:xlink="http://www.w3.org/1999/xlink" xml:space="preserve" xmlns:serif="http://www.serif.com/" style="fill-rule:evenodd;clip-rule:evenodd;stroke-linejoin:round;stroke-miterlimit:2;"><rect id="A.-Orange.-1200x1200" serif:id="A. Orange. 1200x1200" x="0.159" y="0.098" width="287.043" height="287.043" style="fill:none;"/><g><path d="M96.352,76.562c4.3,-4.487 8.425,-7.972 12.238,-10.283c3.749,-0.67 8.644,-1.281 14.685,-1.834c0.275,-0.025 0.552,-0.05 0.831,-0.075c15.246,-1.358 31.553,-2.037 48.921,-2.037c0.534,-0 1.06,0.002 1.579,0.007c8.363,0.073 14.778,0.734 19.246,1.984c2.782,2.215 5.647,5.107 8.54,8.597c12.33,14.874 25.167,40.602 34.333,71.044c8.7,28.889 11.261,56.301 11.253,75.1c-0.001,2.354 1.151,4.92 -1.088,6.011c-0.655,0.476 -1.565,1.617 -2.414,2.157c-5.592,3.361 -16.129,5.115 -31.61,5.263c-0.709,0.007 -1.429,0.01 -2.16,0.01c-35.538,-0 -53.493,-3.356 -53.864,-10.067l-1.105,-15.579l-28.912,0l-2.371,13.422c-0.7,4.634 -3.967,7.83 -9.803,9.587c-5.835,1.758 -16.182,2.637 -31.04,2.637c-4.939,-0 -9.598,-0.119 -13.978,-0.358c-8.797,-0.478 -16.466,-1.438 -23.008,-2.878c-7.745,-1.704 -12.254,-4.479 -13.743,-6.932c0.072,-1.743 0.089,-2.861 0.266,-4.741c1.738,-18.444 8.489,-43.247 19.735,-69.644c13.052,-30.637 29.218,-56.518 43.469,-71.391Zm55.994,84.759l-1.739,-43.143l-6.626,0l-7.899,43.143l16.264,-0Z" style="fill:#ff9224;"/></g></svg>