<?xml version="1.0" encoding="UTF-8" standalone="no"?><!DOCTYPE svg PUBLIC "-//W3C//DTD SVG 1.1//EN" "http://www.w3.org/Graphics/SVG/1.1/DTD/svg11.dtd"><svg width="100%" height="100%" viewBox="0 0 479 132" version="1.1" xmlns="http://www.w3.org/2000/svg" xmlns:xlink="http://www.w3.org/1999/xlink" xml:space="preserve" xmlns:serif="http://www.serif.com/" style="fill-rule:evenodd;clip-rule:evenodd;stroke-linejoin:round;stroke-miterlimit:2;"><rect id="Alt-Long-Logo-Orange-Lug-2000x550px" serif:id="Alt Long Logo Orange Lug 2000x550px" x="0.173" y="0.171" width="478.405" height="131.561" style="fill:none;"/><g id="YJP-Logo-1" serif:id="YJP Logo 1"><g id="_-YOUR-" serif:id="&apos;YOUR&apos;"><path d="M125.176,85.881c-0,0.586 -0.85,1.06 -2.55,1.42c-1.7,0.361 -3.393,0.541 -5.079,0.541c-1.686,0 -2.78,-0.146 -3.281,-0.439c-0.502,-0.293 -0.753,-0.8 -0.753,-1.522l0,-11.767c-5.517,-18.26 -8.276,-28.179 -8.276,-29.757c-0,-0.947 0.933,-1.939 2.801,-2.976c1.867,-1.037 3.831,-1.555 5.893,-1.555c2.648,-0 4.055,1.262 4.222,3.787l1.129,18.192l0.46,0l0.794,-17.718c0.055,-1.263 1.045,-2.289 2.968,-3.078c1.922,-0.789 3.748,-1.183 5.475,-1.183c1.728,-0 2.926,0.406 3.595,1.217c0.669,0.812 1.003,1.668 1.003,2.57c0,0.857 -2.8,11.024 -8.401,30.501l-0,11.767Z" style="fill:#fff9ed;fill-rule:nonzero;"/><path d="M152.99,87.671c-2.313,-0 -4.299,-0.304 -5.957,-0.911c-1.658,-0.606 -3.184,-1.693 -4.577,-3.259c-2.814,-3.093 -4.222,-9.024 -4.222,-17.794c0,-3.68 0.383,-6.89 1.15,-9.631c0.766,-2.74 1.832,-4.913 3.197,-6.518c2.676,-3.132 6.145,-4.699 10.409,-4.699c2.201,0 4.117,0.275 5.747,0.823c1.63,0.548 3.17,1.546 4.619,2.995c2.926,2.975 4.389,8.652 4.389,17.03c0,7.517 -1.324,13.057 -3.971,16.62c-2.647,3.562 -6.242,5.344 -10.784,5.344Zm-1.38,-10.072c0.335,0.568 0.794,0.852 1.38,0.852c0.585,-0 1.045,-0.284 1.379,-0.852c0.334,-0.568 0.613,-1.781 0.836,-3.641c0.223,-1.86 0.334,-4.453 0.334,-7.781c0,-3.328 -0.111,-5.892 -0.334,-7.693c-0.223,-1.801 -0.502,-2.976 -0.836,-3.524c-0.334,-0.548 -0.794,-0.822 -1.379,-0.822c-0.586,0 -1.045,0.274 -1.38,0.822c-0.334,0.548 -0.613,1.723 -0.836,3.524c-0.223,1.801 -0.334,4.365 -0.334,7.693c-0,3.328 0.111,5.921 0.334,7.781c0.223,1.86 0.502,3.073 0.836,3.641Z" style="fill:#fff9ed;fill-rule:nonzero;"/><path d="M199.293,70.655c-0,5.638 -1.15,9.857 -3.449,12.656c-2.299,2.799 -5.629,4.199 -9.99,4.199c-4.361,-0 -7.712,-1.4 -10.053,-4.199c-2.341,-2.799 -3.511,-7.018 -3.511,-12.656l0,-21.552c0,-0.979 0.787,-1.86 2.362,-2.643c1.574,-0.783 3.406,-1.174 5.496,-1.174c1.672,-0 2.759,0.45 3.261,1.351c0.362,0.704 0.543,1.311 0.543,1.82l0,17.5c0,4.424 0.119,7.351 0.356,8.78c0.236,1.429 0.745,2.143 1.525,2.143c0.781,0 1.275,-0.694 1.484,-2.084c0.209,-1.39 0.314,-4.356 0.314,-8.897l-0,-16.796c-0,-0.979 0.787,-1.86 2.361,-2.643c1.575,-0.783 3.393,-1.174 5.455,-1.174c1.756,-0 2.871,0.45 3.344,1.351c0.335,0.704 0.502,1.311 0.502,1.82l-0,22.198Z" style="fill:#fff9ed;fill-rule:nonzero;"/><path d="M215.654,86c-0,0.518 -0.85,0.937 -2.55,1.255c-1.7,0.319 -3.407,0.479 -5.12,0.479c-1.714,-0 -2.815,-0.14 -3.303,-0.419c-0.487,-0.279 -0.731,-0.717 -0.731,-1.315l-0,-38.441c-0,-1.036 0.912,-1.773 2.738,-2.212c1.825,-0.438 4.131,-0.657 6.918,-0.657c2.786,-0 4.591,0.01 5.413,0.029c0.822,0.02 1.79,0.09 2.905,0.21c1.114,0.119 1.999,0.319 2.654,0.598c0.655,0.279 1.379,0.637 2.174,1.076c0.794,0.438 1.414,1.006 1.86,1.703c0.446,0.698 0.878,1.525 1.296,2.481c0.752,1.714 1.128,4.155 1.128,7.324c0,3.168 -0.369,5.839 -1.108,8.011c-0.738,2.172 -1.72,3.816 -2.946,4.932c3.204,7.214 4.807,11.797 4.807,13.75c-0,1.953 -2.745,2.93 -8.235,2.93c-1.588,-0 -2.689,-0.1 -3.302,-0.299c-0.613,-0.199 -1.003,-0.638 -1.171,-1.315l-2.717,-12.316l-0.71,-0.06l-0,12.256Zm-0,-21.462l1.087,-0c1.616,-0 2.424,-1.794 2.424,-5.381c-0,-1.833 -0.216,-3.128 -0.648,-3.886c-0.432,-0.757 -0.926,-1.136 -1.484,-1.136l-1.379,0l-0,10.403Z" style="fill:#fff9ed;fill-rule:nonzero;"/></g><g id="_-PLUG-" serif:id="&apos;PLUG&apos;"><path d="M360.23,86.05c0,0.576 -0.85,1.042 -2.549,1.397c-1.7,0.355 -3.4,0.532 -5.1,0.532c-1.7,0 -2.787,-0.155 -3.26,-0.466c-0.474,-0.31 -0.711,-0.798 -0.711,-1.463l0,-42.787c0,-2.129 4.013,-3.194 12.038,-3.194c4.849,0 8.054,0.532 9.614,1.597c1.895,1.242 3.177,2.928 3.846,5.057c0.892,2.751 1.338,6.277 1.338,10.58c-0,5.9 -0.641,10.181 -1.923,12.843c-0.92,1.952 -1.839,3.216 -2.759,3.793c-0.92,0.577 -1.679,0.987 -2.278,1.231c-0.599,0.244 -1.345,0.432 -2.236,0.566c-1.227,0.177 -2.899,0.266 -5.016,0.266l-1.004,-0.067l0,10.115Zm0.042,-21.161l1.003,0c0.53,0 0.948,-0.122 1.254,-0.366c0.307,-0.244 0.579,-0.909 0.816,-1.996c0.236,-1.087 0.355,-2.617 0.355,-4.591c-0,-1.975 -0.133,-3.483 -0.397,-4.525c-0.265,-1.043 -0.53,-1.664 -0.794,-1.863c-0.265,-0.2 -0.579,-0.3 -0.941,-0.3l-1.296,0l0,13.641Z" style="fill:#fff9ed;fill-rule:nonzero;"/><path d="M383.357,87.364c-1.393,0 -2.326,-0.109 -2.8,-0.327c-0.474,-0.219 -0.711,-0.586 -0.711,-1.103l0,-37.057c0,-0.873 0.808,-1.737 2.425,-2.591c1.616,-0.854 3.427,-1.281 5.434,-1.281c1.783,-0 2.953,0.536 3.511,1.608c0.195,0.398 0.292,0.795 0.292,1.192l0,26.393c3.4,-0.318 5.964,-0.477 7.692,-0.477c0.585,0 0.877,1.321 0.877,3.962c0,2.641 -0.125,4.915 -0.376,6.821c-0.251,1.907 -0.585,2.86 -1.003,2.86l-15.341,0Z" style="fill:#fff9ed;fill-rule:nonzero;"/><path d="M431.558,70.676c0,5.719 -1.149,9.999 -3.448,12.839c-2.299,2.84 -5.629,4.26 -9.991,4.26c-4.361,-0 -7.712,-1.42 -10.053,-4.26c-2.34,-2.84 -3.511,-7.12 -3.511,-12.839l0,-21.865c0,-0.993 0.788,-1.886 2.362,-2.681c1.574,-0.794 3.407,-1.191 5.497,-1.191c1.672,-0 2.758,0.456 3.26,1.37c0.362,0.715 0.543,1.33 0.543,1.847l0,17.754c0,4.488 0.119,7.457 0.356,8.907c0.237,1.449 0.745,2.174 1.525,2.174c0.781,0 1.275,-0.705 1.484,-2.115c0.209,-1.41 0.314,-4.419 0.314,-9.026l-0,-17.039c-0,-0.993 0.787,-1.886 2.362,-2.681c1.574,-0.794 3.392,-1.191 5.454,-1.191c1.756,-0 2.871,0.456 3.344,1.37c0.335,0.715 0.502,1.33 0.502,1.847l0,22.52Z" style="fill:#fff9ed;fill-rule:nonzero;"/><path d="M445.656,87.629c-0.947,-0 -1.825,-0.136 -2.633,-0.408c-0.808,-0.272 -1.651,-0.845 -2.529,-1.718c-0.878,-0.874 -1.623,-2.029 -2.236,-3.466c-1.394,-3.262 -2.09,-8.175 -2.09,-14.737c-0,-3.612 0.348,-6.796 1.045,-9.553c0.696,-2.757 1.574,-4.903 2.633,-6.437c1.059,-1.534 2.327,-2.786 3.804,-3.757c1.477,-0.971 2.856,-1.602 4.138,-1.893c1.282,-0.291 2.647,-0.437 4.096,-0.437c3.344,-0 5.699,0.398 7.065,1.194c1.365,0.796 2.048,2.32 2.048,4.573c-0,1.786 -0.237,3.718 -0.711,5.796c-0.474,2.077 -1.17,3.116 -2.09,3.116c-0.223,-0 -1.17,-0.301 -2.842,-0.903c-1.672,-0.602 -2.926,-0.903 -3.762,-0.903c-2.397,0 -3.595,2.816 -3.595,8.446c0,2.835 0.279,4.942 0.836,6.32c0.557,1.379 1.254,2.146 2.09,2.301l0,-5.242c0,-0.971 0.711,-1.864 2.132,-2.68c1.421,-0.815 2.786,-1.223 4.096,-1.223c1.31,0 2.264,0.117 2.864,0.35c0.599,0.233 1.01,0.563 1.233,0.99c0.39,0.699 0.585,1.32 0.585,1.864l-0,16.135c-0,0.505 -0.732,0.913 -2.195,1.223c-1.463,0.311 -2.981,0.466 -4.556,0.466c-1.574,0 -2.571,-0.106 -2.989,-0.32c-0.418,-0.214 -0.654,-0.806 -0.71,-1.777l-0.293,-3.436l-0.334,-0c-0.195,1.669 -0.69,3.106 -1.484,4.31c-0.794,1.204 -2,1.806 -3.616,1.806Z" style="fill:#fff9ed;fill-rule:nonzero;"/></g><g><path d="M259.159,84.753c-0.546,1.262 -1.343,2.148 -2.392,2.657c-1.049,0.509 -2.238,0.764 -3.566,0.764c-1.329,-0 -2.301,-0.029 -2.916,-0.085c-0.616,-0.057 -1.266,-0.208 -1.951,-0.453c-0.686,-0.245 -1.224,-0.574 -1.616,-0.989c-0.895,-1.018 -1.343,-2.601 -1.343,-4.75c0,-3.091 0.588,-4.637 1.763,-4.637c0.363,0 0.643,-0.075 0.839,-0.226c0.531,-0.339 0.797,-1.508 0.797,-3.506l0,-29.46c0,-0.83 0.804,-1.65 2.413,-2.46c1.608,-0.811 3.321,-1.216 5.14,-1.216c2.769,0 4.154,0.886 4.154,2.658l-0,31.27c-0,2.601 -0.084,4.674 -0.252,6.22c-0.168,1.546 -0.525,2.95 -1.07,4.213Z" style="fill:#fff9ed;fill-rule:nonzero;"/><path d="M305.606,87.946l-3.042,-0c-1.329,-0 -2.231,-0.143 -2.707,-0.428c-0.475,-0.286 -0.713,-0.734 -0.713,-1.346l0,-38.588c0,-0.938 0.86,-1.682 2.581,-2.233c1.72,-0.55 3.559,-0.825 5.517,-0.825c1.958,-0 3.357,0.367 4.196,1.101c0.839,0.733 1.329,1.508 1.469,2.324l2.853,16.144l0.377,0l2.686,-15.411c0.196,-1.1 1.112,-2.069 2.748,-2.904c1.636,-0.836 3.434,-1.254 5.392,-1.254c1.958,-0 3.405,0.224 4.342,0.673c0.937,0.448 1.406,1.019 1.406,1.712l0,39.261c0,0.53 -0.797,0.958 -2.392,1.285c-1.594,0.326 -3.538,0.489 -5.832,0.489c-2.294,-0 -3.44,-0.591 -3.44,-1.774c-0,-3.221 0.237,-8.949 0.713,-17.184l-0.378,-0l-2.182,15.961c-0.084,0.612 -0.426,1.06 -1.028,1.346c-0.601,0.285 -1.503,0.428 -2.706,0.428c-1.203,-0 -1.937,-0.123 -2.203,-0.367c-0.266,-0.245 -0.44,-0.714 -0.524,-1.407l-2.266,-15.961l-0.378,-0c0.504,8.398 0.756,14.127 0.756,17.184c-0,1.06 -1.749,1.651 -5.245,1.774Z" style="fill:#fff9ed;fill-rule:nonzero;"/><path d="M264.848,83.659c-0.295,-4.226 0.716,-11.307 2.912,-19.073c2.126,-7.513 4.859,-13.893 7.265,-17.414c0.392,-0.573 0.774,-1.07 1.144,-1.483c0.554,-0.221 1.35,-0.418 2.388,-0.591c0.337,-0.057 0.678,-0.109 1.023,-0.156c1.415,-0.193 2.891,-0.307 4.43,-0.343c0.348,-0.008 0.699,-0.012 1.054,-0.012c1.287,-0 2.238,0.188 2.852,0.564c0.292,0.466 0.583,1.01 0.871,1.625c1.815,3.871 3.511,10.539 4.447,18.211c0.941,7.71 0.894,14.623 0.052,18.813c-0.176,0.878 -0.388,1.637 -0.632,2.258c-0.687,0.641 -1.787,1.02 -3.303,1.138c-0.341,0.026 -0.703,0.039 -1.086,0.039c-4.712,0 -7.057,-0.841 -7.035,-2.523l0.018,-3.904l-3.833,0l-0.456,3.364c-0.142,1.161 -0.609,1.962 -1.401,2.403c-0.792,0.44 -2.173,0.66 -4.142,0.66c-1.125,0 -2.136,-0.088 -3.034,-0.264c-0.676,-0.132 -1.288,-0.315 -1.836,-0.547c-0.672,-0.284 -1.158,-0.611 -1.458,-0.978c-0.113,-0.518 -0.193,-1.117 -0.24,-1.787Zm16.43,-14.264l0.225,-10.812l-0.879,-0l-1.502,10.812l2.156,0Z" style="fill:#fff9ed;"/></g></g><path d="M51.221,28.419c9.604,-0.418 19.35,2.996 26.737,10.264c14.115,13.889 14.299,36.625 0.41,50.741c-13.889,14.115 -36.625,14.299 -50.741,0.41c-7.749,-7.625 -11.3,-17.916 -10.628,-27.984l0.015,0.015l34.231,-33.421l-0.024,-0.025Zm-12.286,22.205c-7.525,7.647 -7.425,19.966 0.223,27.491c7.647,7.525 19.966,7.426 27.491,-0.222c7.525,-7.648 7.426,-19.967 -0.222,-27.492c-7.648,-7.525 -19.967,-7.425 -27.492,0.223Zm2.139,2.104c6.364,-6.468 16.781,-6.552 23.249,-0.188c6.468,6.364 6.552,16.781 0.188,23.249c-6.364,6.468 -16.782,6.552 -23.249,0.188c-6.468,-6.364 -6.552,-16.782 -0.188,-23.249Z" style="fill:#e47200;"/></svg>