<?xml version="1.0" encoding="UTF-8" standalone="no"?><!DOCTYPE svg PUBLIC "-//W3C//DTD SVG 1.1//EN" "http://www.w3.org/Graphics/SVG/1.1/DTD/svg11.dtd"><svg width="100%" height="100%" viewBox="0 0 133 133" version="1.1" xmlns="http://www.w3.org/2000/svg" xmlns:xlink="http://www.w3.org/1999/xlink" xml:space="preserve" xmlns:serif="http://www.serif.com/" style="fill-rule:evenodd;clip-rule:evenodd;stroke-linecap:round;stroke-linejoin:round;stroke-miterlimit:1.5;"><rect id="_400x400" serif:id="400x400" x="0.049" y="0.073" width="132" height="132" style="fill:none;"/><path d="M52.557,66.85l-44.411,-44.411c-1.464,-1.464 -1.464,-3.841 -0,-5.304l5.304,-5.305c1.463,-1.463 3.84,-1.463 5.304,0l44.411,44.412l45.966,-45.966c1.464,-1.464 3.841,-1.464 5.305,0l5.304,5.304c1.463,1.464 1.463,3.841 -0,5.304l-45.966,45.966l44.411,44.412c1.464,1.464 1.464,3.84 0,5.304l-5.304,5.304c-1.463,1.464 -3.84,1.464 -5.304,0l-44.412,-44.411l-44.411,44.411c-1.464,1.464 -3.841,1.464 -5.304,0l-5.304,-5.304c-1.464,-1.464 -1.464,-3.84 -0,-5.304l44.411,-44.412Z" style="fill:#b1a89f;fill-opacity:0.61;stroke:#505050;stroke-opacity:0.57;stroke-width:0.41px;"/></svg>