<?xml version="1.0" encoding="UTF-8" standalone="no"?><!DOCTYPE svg PUBLIC "-//W3C//DTD SVG 1.1//EN" "http://www.w3.org/Graphics/SVG/1.1/DTD/svg11.dtd"><svg width="100%" height="100%" viewBox="0 0 288 288" version="1.1" xmlns="http://www.w3.org/2000/svg" xmlns:xlink="http://www.w3.org/1999/xlink" xml:space="preserve" xmlns:serif="http://www.serif.com/" style="fill-rule:evenodd;clip-rule:evenodd;stroke-linejoin:round;stroke-miterlimit:2;"><rect id="Plain-chip-Orange-Badge-1200x1200" serif:id="Plain chip Orange Badge 1200x1200" x="0.179" y="0.099" width="287.043" height="287.043" style="fill:none;"/><path d="M137.785,1.508c38.188,-1.665 76.943,11.91 106.311,40.803c56.127,55.217 56.858,145.607 1.632,201.725c-55.225,56.118 -145.629,56.849 -201.755,1.632c-30.813,-30.314 -44.93,-71.229 -42.259,-111.254l0.059,0.061l136.108,-132.869l-0.096,-0.098Zm-48.849,88.275c-29.921,30.405 -29.525,79.379 0.884,109.296c30.41,29.917 79.391,29.521 109.313,-0.884c29.921,-30.405 29.525,-79.379 -0.884,-109.296c-30.41,-29.917 -79.391,-29.521 -109.313,0.884Zm8.503,8.365c25.304,-25.712 66.727,-26.047 92.443,-0.747c25.717,25.3 26.052,66.716 0.748,92.429c-25.304,25.713 -66.727,26.048 -92.443,0.748c-25.717,-25.301 -26.052,-66.717 -0.748,-92.43Z" style="fill:#e47200;"/></svg>