<?xml version="1.0" encoding="UTF-8" standalone="no"?><!DOCTYPE svg PUBLIC "-//W3C//DTD SVG 1.1//EN" "http://www.w3.org/Graphics/SVG/1.1/DTD/svg11.dtd"><svg width="100%" height="100%" viewBox="0 0 288 288" version="1.1" xmlns="http://www.w3.org/2000/svg" xmlns:xlink="http://www.w3.org/1999/xlink" xml:space="preserve" xmlns:serif="http://www.serif.com/" style="fill-rule:evenodd;clip-rule:evenodd;stroke-linejoin:round;stroke-miterlimit:2;"><rect id="Orange-lug.2.1200x1200" serif:id="Orange lug.2.1200x1200" x="0.179" y="0.047" width="287.043" height="287.043" style="fill:none;"/><g><path d="M137.295,0.781c38.225,-1.666 77.015,11.923 106.412,40.848c56.179,55.277 56.911,145.766 1.633,201.946c-55.277,56.179 -145.767,56.911 -201.946,1.633c-30.842,-30.347 -44.972,-71.306 -42.298,-111.375l0.059,0.061l136.237,-133.015l-0.097,-0.098Zm-48.895,88.372c-29.95,30.438 -29.553,79.466 0.885,109.416c30.439,29.949 79.466,29.553 109.416,-0.885c29.95,-30.439 29.553,-79.466 -0.885,-109.416c-30.438,-29.95 -79.466,-29.553 -109.416,0.885Zm8.511,8.374c25.328,-25.741 66.79,-26.076 92.531,-0.748c25.741,25.328 26.076,66.789 0.748,92.53c-25.328,25.741 -66.789,26.077 -92.531,0.749c-25.741,-25.328 -26.076,-66.79 -0.748,-92.531Z" style="fill:#e47200;"/><g><path d="M107.15,127.869c-4.84,0 -5.297,-3.196 -5.297,-7.132c0,-3.937 0.457,-7.133 5.297,-7.133l21.095,0c4.841,0 5.096,3.196 5.096,7.133c-0,3.936 -0.255,7.132 -5.096,7.132l-21.095,0Z"/><path d="M158.919,127.141c-4.84,0 -5.297,-3.196 -5.297,-7.133c0,-3.936 0.457,-7.132 5.297,-7.132l21.095,-0c4.841,-0 5.096,3.196 5.096,7.132c-0,3.937 -0.255,7.133 -5.096,7.133l-21.095,0Z"/></g></g></svg>